<svg width="188" height="500" viewBox="0 0 188 500" fill="none" xmlns="http://www.w3.org/2000/svg">
<circle cx="2.5" cy="2.5" r="2.5" fill="#C4C4C4"/>
<circle cx="2.5" cy="266.5" r="2.5" fill="#C4C4C4"/>
<circle cx="2.5" cy="134.5" r="2.5" fill="#C4C4C4"/>
<circle cx="2.5" cy="398.5" r="2.5" fill="#C4C4C4"/>
<circle cx="2.5" cy="68.5" r="2.5" fill="#C4C4C4"/>
<circle cx="2.5" cy="332.5" r="2.5" fill="#C4C4C4"/>
<circle cx="2.5" cy="200.5" r="2.5" fill="#C4C4C4"/>
<circle cx="2.5" cy="464.5" r="2.5" fill="#C4C4C4"/>
<circle cx="70.5" cy="464.5" r="2.5" fill="#C4C4C4"/>
<circle cx="2.5" cy="35.5" r="2.5" fill="#C4C4C4"/>
<circle cx="2.5" cy="299.5" r="2.5" fill="#C4C4C4"/>
<circle cx="2.5" cy="167.5" r="2.5" fill="#C4C4C4"/>
<circle cx="2.5" cy="431.5" r="2.5" fill="#C4C4C4"/>
<circle cx="70.5" cy="431.5" r="2.5" fill="#C4C4C4"/>
<circle cx="2.5" cy="101.5" r="2.5" fill="#C4C4C4"/>
<circle cx="2.5" cy="365.5" r="2.5" fill="#C4C4C4"/>
<circle cx="2.5" cy="233.5" r="2.5" fill="#C4C4C4"/>
<circle cx="2.5" cy="497.5" r="2.5" fill="#C4C4C4"/>
<circle cx="70.5" cy="497.5" r="2.5" fill="#C4C4C4"/>
<circle cx="2.5" cy="19.5" r="2.5" fill="#C4C4C4"/>
<circle cx="2.5" cy="283.5" r="2.5" fill="#C4C4C4"/>
<circle cx="2.5" cy="151.5" r="2.5" fill="#C4C4C4"/>
<circle cx="2.5" cy="415.5" r="2.5" fill="#C4C4C4"/>
<circle cx="2.5" cy="85.5" r="2.5" fill="#C4C4C4"/>
<circle cx="2.5" cy="349.5" r="2.5" fill="#C4C4C4"/>
<circle cx="2.5" cy="217.5" r="2.5" fill="#C4C4C4"/>
<circle cx="2.5" cy="481.5" r="2.5" fill="#C4C4C4"/>
<circle cx="70.5" cy="481.5" r="2.5" fill="#C4C4C4"/>
<circle cx="2.5" cy="52.5" r="2.5" fill="#C4C4C4"/>
<circle cx="2.5" cy="316.5" r="2.5" fill="#C4C4C4"/>
<circle cx="2.5" cy="184.5" r="2.5" fill="#C4C4C4"/>
<circle cx="2.5" cy="448.5" r="2.5" fill="#C4C4C4"/>
<circle cx="70.5" cy="448.5" r="2.5" fill="#C4C4C4"/>
<circle cx="2.5" cy="118.5" r="2.5" fill="#C4C4C4"/>
<circle cx="2.5" cy="382.5" r="2.5" fill="#C4C4C4"/>
<circle cx="2.5" cy="250.5" r="2.5" fill="#C4C4C4"/>
<circle cx="19.5" cy="2.5" r="2.5" fill="#C4C4C4"/>
<circle cx="19.5" cy="266.5" r="2.5" fill="#C4C4C4"/>
<circle cx="19.5" cy="134.5" r="2.5" fill="#C4C4C4"/>
<circle cx="19.5" cy="398.5" r="2.5" fill="#C4C4C4"/>
<circle cx="19.5" cy="68.5" r="2.5" fill="#C4C4C4"/>
<circle cx="19.5" cy="332.5" r="2.5" fill="#C4C4C4"/>
<circle cx="19.5" cy="200.5" r="2.5" fill="#C4C4C4"/>
<circle cx="19.5" cy="464.5" r="2.5" fill="#C4C4C4"/>
<circle cx="85.5" cy="464.5" r="2.5" fill="#C4C4C4"/>
<circle cx="19.5" cy="35.5" r="2.5" fill="#C4C4C4"/>
<circle cx="19.5" cy="299.5" r="2.5" fill="#C4C4C4"/>
<circle cx="19.5" cy="167.5" r="2.5" fill="#C4C4C4"/>
<circle cx="19.5" cy="431.5" r="2.5" fill="#C4C4C4"/>
<circle cx="85.5" cy="431.5" r="2.5" fill="#C4C4C4"/>
<circle cx="19.5" cy="101.5" r="2.5" fill="#C4C4C4"/>
<circle cx="19.5" cy="365.5" r="2.5" fill="#C4C4C4"/>
<circle cx="19.5" cy="233.5" r="2.5" fill="#C4C4C4"/>
<circle cx="19.5" cy="497.5" r="2.5" fill="#C4C4C4"/>
<circle cx="85.5" cy="497.5" r="2.5" fill="#C4C4C4"/>
<circle cx="19.5" cy="19.5" r="2.5" fill="#C4C4C4"/>
<circle cx="19.5" cy="283.5" r="2.5" fill="#C4C4C4"/>
<circle cx="19.5" cy="151.5" r="2.5" fill="#C4C4C4"/>
<circle cx="19.5" cy="415.5" r="2.5" fill="#C4C4C4"/>
<circle cx="19.5" cy="85.5" r="2.5" fill="#C4C4C4"/>
<circle cx="19.5" cy="349.5" r="2.5" fill="#C4C4C4"/>
<circle cx="19.5" cy="217.5" r="2.5" fill="#C4C4C4"/>
<circle cx="19.5" cy="481.5" r="2.5" fill="#C4C4C4"/>
<circle cx="85.5" cy="481.5" r="2.5" fill="#C4C4C4"/>
<circle cx="19.5" cy="52.5" r="2.5" fill="#C4C4C4"/>
<circle cx="19.5" cy="316.5" r="2.5" fill="#C4C4C4"/>
<circle cx="19.5" cy="184.5" r="2.5" fill="#C4C4C4"/>
<circle cx="19.5" cy="448.5" r="2.5" fill="#C4C4C4"/>
<circle cx="85.5" cy="448.5" r="2.5" fill="#C4C4C4"/>
<circle cx="19.5" cy="118.5" r="2.5" fill="#C4C4C4"/>
<circle cx="19.5" cy="382.5" r="2.5" fill="#C4C4C4"/>
<circle cx="19.5" cy="250.5" r="2.5" fill="#C4C4C4"/>
<circle cx="36.5" cy="2.5" r="2.5" fill="#C4C4C4"/>
<circle cx="36.5" cy="266.5" r="2.5" fill="#C4C4C4"/>
<circle cx="36.5" cy="134.5" r="2.5" fill="#C4C4C4"/>
<circle cx="36.5" cy="398.5" r="2.5" fill="#C4C4C4"/>
<circle cx="36.5" cy="68.5" r="2.5" fill="#C4C4C4"/>
<circle cx="36.5" cy="332.5" r="2.5" fill="#C4C4C4"/>
<circle cx="36.5" cy="200.5" r="2.5" fill="#C4C4C4"/>
<circle cx="36.5" cy="464.5" r="2.5" fill="#C4C4C4"/>
<circle cx="102.5" cy="464.5" r="2.5" fill="#C4C4C4"/>
<circle cx="134.5" cy="464.5" r="2.5" fill="#C4C4C4"/>
<circle cx="168.5" cy="464.5" r="2.5" fill="#C4C4C4"/>
<circle cx="36.5" cy="35.5" r="2.5" fill="#C4C4C4"/>
<circle cx="36.5" cy="299.5" r="2.5" fill="#C4C4C4"/>
<circle cx="36.5" cy="167.5" r="2.5" fill="#C4C4C4"/>
<circle cx="36.5" cy="431.5" r="2.5" fill="#C4C4C4"/>
<circle cx="102.5" cy="431.5" r="2.5" fill="#C4C4C4"/>
<circle cx="134.5" cy="431.5" r="2.5" fill="#C4C4C4"/>
<circle cx="168.5" cy="431.5" r="2.5" fill="#C4C4C4"/>
<circle cx="36.5" cy="101.5" r="2.5" fill="#C4C4C4"/>
<circle cx="36.5" cy="365.5" r="2.5" fill="#C4C4C4"/>
<circle cx="36.5" cy="233.5" r="2.5" fill="#C4C4C4"/>
<circle cx="36.5" cy="497.5" r="2.5" fill="#C4C4C4"/>
<circle cx="102.5" cy="497.5" r="2.5" fill="#C4C4C4"/>
<circle cx="134.5" cy="497.5" r="2.5" fill="#C4C4C4"/>
<circle cx="168.5" cy="497.5" r="2.5" fill="#C4C4C4"/>
<circle cx="36.5" cy="19.5" r="2.5" fill="#C4C4C4"/>
<circle cx="36.5" cy="283.5" r="2.5" fill="#C4C4C4"/>
<circle cx="36.5" cy="151.5" r="2.5" fill="#C4C4C4"/>
<circle cx="36.5" cy="415.5" r="2.5" fill="#C4C4C4"/>
<circle cx="36.5" cy="85.5" r="2.5" fill="#C4C4C4"/>
<circle cx="36.5" cy="349.5" r="2.5" fill="#C4C4C4"/>
<circle cx="36.5" cy="217.5" r="2.5" fill="#C4C4C4"/>
<circle cx="36.5" cy="481.5" r="2.5" fill="#C4C4C4"/>
<circle cx="102.5" cy="481.5" r="2.5" fill="#C4C4C4"/>
<circle cx="134.5" cy="481.5" r="2.5" fill="#C4C4C4"/>
<circle cx="168.5" cy="481.5" r="2.5" fill="#C4C4C4"/>
<circle cx="36.5" cy="52.5" r="2.5" fill="#C4C4C4"/>
<circle cx="36.5" cy="316.5" r="2.5" fill="#C4C4C4"/>
<circle cx="36.5" cy="184.5" r="2.5" fill="#C4C4C4"/>
<circle cx="36.5" cy="448.5" r="2.5" fill="#C4C4C4"/>
<circle cx="102.5" cy="448.5" r="2.5" fill="#C4C4C4"/>
<circle cx="134.5" cy="448.5" r="2.5" fill="#C4C4C4"/>
<circle cx="168.5" cy="448.5" r="2.5" fill="#C4C4C4"/>
<circle cx="36.5" cy="118.5" r="2.5" fill="#C4C4C4"/>
<circle cx="36.5" cy="382.5" r="2.5" fill="#C4C4C4"/>
<circle cx="36.5" cy="250.5" r="2.5" fill="#C4C4C4"/>
<circle cx="53.5" cy="2.5" r="2.5" fill="#C4C4C4"/>
<circle cx="53.5" cy="266.5" r="2.5" fill="#C4C4C4"/>
<circle cx="53.5" cy="134.5" r="2.5" fill="#C4C4C4"/>
<circle cx="53.5" cy="398.5" r="2.5" fill="#C4C4C4"/>
<circle cx="53.5" cy="68.5" r="2.5" fill="#C4C4C4"/>
<circle cx="53.5" cy="332.5" r="2.5" fill="#C4C4C4"/>
<circle cx="53.5" cy="200.5" r="2.5" fill="#C4C4C4"/>
<circle cx="53.5" cy="464.5" r="2.5" fill="#C4C4C4"/>
<circle cx="119.5" cy="464.5" r="2.5" fill="#C4C4C4"/>
<circle cx="151.5" cy="464.5" r="2.5" fill="#C4C4C4"/>
<circle cx="185.5" cy="464.5" r="2.5" fill="#C4C4C4"/>
<circle cx="53.5" cy="35.5" r="2.5" fill="#C4C4C4"/>
<circle cx="53.5" cy="299.5" r="2.5" fill="#C4C4C4"/>
<circle cx="53.5" cy="167.5" r="2.5" fill="#C4C4C4"/>
<circle cx="53.5" cy="431.5" r="2.5" fill="#C4C4C4"/>
<circle cx="119.5" cy="431.5" r="2.5" fill="#C4C4C4"/>
<circle cx="151.5" cy="431.5" r="2.5" fill="#C4C4C4"/>
<circle cx="185.5" cy="431.5" r="2.5" fill="#C4C4C4"/>
<circle cx="53.5" cy="101.5" r="2.5" fill="#C4C4C4"/>
<circle cx="53.5" cy="365.5" r="2.5" fill="#C4C4C4"/>
<circle cx="53.5" cy="233.5" r="2.5" fill="#C4C4C4"/>
<circle cx="53.5" cy="497.5" r="2.5" fill="#C4C4C4"/>
<circle cx="119.5" cy="497.5" r="2.5" fill="#C4C4C4"/>
<circle cx="151.5" cy="497.5" r="2.5" fill="#C4C4C4"/>
<circle cx="185.5" cy="497.5" r="2.5" fill="#C4C4C4"/>
<circle cx="53.5" cy="19.5" r="2.5" fill="#C4C4C4"/>
<circle cx="53.5" cy="283.5" r="2.5" fill="#C4C4C4"/>
<circle cx="53.5" cy="151.5" r="2.5" fill="#C4C4C4"/>
<circle cx="53.5" cy="415.5" r="2.5" fill="#C4C4C4"/>
<circle cx="53.5" cy="85.5" r="2.5" fill="#C4C4C4"/>
<circle cx="53.5" cy="349.5" r="2.5" fill="#C4C4C4"/>
<circle cx="53.5" cy="217.5" r="2.5" fill="#C4C4C4"/>
<circle cx="53.5" cy="481.5" r="2.5" fill="#C4C4C4"/>
<circle cx="119.5" cy="481.5" r="2.5" fill="#C4C4C4"/>
<circle cx="151.5" cy="481.5" r="2.5" fill="#C4C4C4"/>
<circle cx="185.5" cy="481.5" r="2.5" fill="#C4C4C4"/>
<circle cx="53.5" cy="52.5" r="2.5" fill="#C4C4C4"/>
<circle cx="53.5" cy="316.5" r="2.5" fill="#C4C4C4"/>
<circle cx="53.5" cy="184.5" r="2.5" fill="#C4C4C4"/>
<circle cx="53.5" cy="448.5" r="2.5" fill="#C4C4C4"/>
<circle cx="119.5" cy="448.5" r="2.5" fill="#C4C4C4"/>
<circle cx="151.5" cy="448.5" r="2.5" fill="#C4C4C4"/>
<circle cx="185.5" cy="448.5" r="2.5" fill="#C4C4C4"/>
<circle cx="53.5" cy="118.5" r="2.5" fill="#C4C4C4"/>
<circle cx="53.5" cy="382.5" r="2.5" fill="#C4C4C4"/>
<circle cx="53.5" cy="250.5" r="2.5" fill="#C4C4C4"/>
</svg>
